<svg width="682" height="160" viewBox="0 0 682 160" fill="none" xmlns="http://www.w3.org/2000/svg">
<path d="M93.4425 51.3121C87.2548 53.1488 82.5903 57.3037 79.1744 61.817C78.4409 62.7858 76.9122 62.0578 77.2033 60.8707C83.7438 33.9756 75.1035 11.6218 48.1688 0.618451C46.8025 0.058486 45.3801 1.28481 45.7385 2.71832C57.9907 51.9113 6.45648 47.7619 12.969 103.529C13.0809 104.486 12.0058 105.142 11.2218 104.582C8.78036 102.829 6.0533 99.1723 4.18299 96.6021C3.63422 95.8461 2.44708 96.0589 2.19509 96.9604C0.705565 102.347 0 107.421 0 112.46C0 132.059 10.0739 149.312 25.3219 159.313C26.1955 159.884 27.3154 159.066 27.0187 158.064C26.2347 155.432 25.7923 152.655 25.7587 149.782C25.7587 148.018 25.8707 146.215 26.1451 144.535C26.7835 140.313 28.2506 136.292 30.7145 132.63C39.1644 119.947 56.1036 107.695 53.3989 91.0584C53.2253 90.0057 54.4685 89.3113 55.2524 90.0337C67.1854 100.936 69.5485 115.602 67.5886 128.755C67.4206 129.898 68.8542 130.508 69.5765 129.612C71.402 127.327 73.6307 125.323 76.0554 123.816C76.6602 123.441 77.4665 123.727 77.6961 124.399C79.0457 128.324 81.0503 132.009 82.9431 135.693C85.2053 140.123 86.4093 145.179 86.2189 150.532C86.1237 153.136 85.6925 155.656 84.9701 158.053C84.6622 159.066 85.7709 159.912 86.6613 159.329C101.921 149.328 112 132.076 112 112.466C112 105.651 110.807 98.9707 108.551 92.7103C103.819 79.5791 91.813 69.7181 94.8481 52.6056C94.9937 51.7881 94.2377 51.0769 93.4425 51.3121Z" fill="#323e88" style="fill:#323e88;fill:color(display-p3 0.196078 0.243137 0.533333);fill-opacity:1;"/>
<path d="M164 136.208V43.8472H223.034V57.3056H179.188V84.0903H215.374V97.1528H179.188V136.208H164Z" fill="#262626" style="fill:#262626;fill:color(display-p3 0.1500 0.1500 0.1500);fill-opacity:1;"/>
<path d="M164 136.208V43.8472H223.034V57.3056H179.188V84.0903H215.374V97.1528H179.188V136.208H164Z" fill="black" fill-opacity="0.2" style="fill:black;fill-opacity:0.2;"/>
<path d="M164 136.208V43.8472H223.034V57.3056H179.188V84.0903H215.374V97.1528H179.188V136.208H164Z" fill="black" fill-opacity="0.2" style="fill:black;fill-opacity:0.2;"/>
<path d="M164 136.208V43.8472H223.034V57.3056H179.188V84.0903H215.374V97.1528H179.188V136.208H164Z" fill="black" fill-opacity="0.2" style="fill:black;fill-opacity:0.2;"/>
<path d="M164 136.208V43.8472H223.034V57.3056H179.188V84.0903H215.374V97.1528H179.188V136.208H164Z" fill="black" fill-opacity="0.2" style="fill:black;fill-opacity:0.2;"/>
<path d="M164 136.208V43.8472H223.034V57.3056H179.188V84.0903H215.374V97.1528H179.188V136.208H164Z" fill="black" fill-opacity="0.2" style="fill:black;fill-opacity:0.2;"/>
<path d="M239.827 59.1528C234.941 59.1528 231.111 55.5903 231.111 50.5764C231.111 45.5625 234.941 42 239.827 42C244.714 42 248.544 45.5625 248.544 50.5764C248.544 55.5903 244.714 59.1528 239.827 59.1528ZM232.564 136.208V68.6528H246.827V136.208H232.564Z" fill="#262626" style="fill:#262626;fill:color(display-p3 0.1500 0.1500 0.1500);fill-opacity:1;"/>
<path d="M239.827 59.1528C234.941 59.1528 231.111 55.5903 231.111 50.5764C231.111 45.5625 234.941 42 239.827 42C244.714 42 248.544 45.5625 248.544 50.5764C248.544 55.5903 244.714 59.1528 239.827 59.1528ZM232.564 136.208V68.6528H246.827V136.208H232.564Z" fill="black" fill-opacity="0.2" style="fill:black;fill-opacity:0.2;"/>
<path d="M239.827 59.1528C234.941 59.1528 231.111 55.5903 231.111 50.5764C231.111 45.5625 234.941 42 239.827 42C244.714 42 248.544 45.5625 248.544 50.5764C248.544 55.5903 244.714 59.1528 239.827 59.1528ZM232.564 136.208V68.6528H246.827V136.208H232.564Z" fill="black" fill-opacity="0.2" style="fill:black;fill-opacity:0.2;"/>
<path d="M239.827 59.1528C234.941 59.1528 231.111 55.5903 231.111 50.5764C231.111 45.5625 234.941 42 239.827 42C244.714 42 248.544 45.5625 248.544 50.5764C248.544 55.5903 244.714 59.1528 239.827 59.1528ZM232.564 136.208V68.6528H246.827V136.208H232.564Z" fill="black" fill-opacity="0.2" style="fill:black;fill-opacity:0.2;"/>
<path d="M239.827 59.1528C234.941 59.1528 231.111 55.5903 231.111 50.5764C231.111 45.5625 234.941 42 239.827 42C244.714 42 248.544 45.5625 248.544 50.5764C248.544 55.5903 244.714 59.1528 239.827 59.1528ZM232.564 136.208V68.6528H246.827V136.208H232.564Z" fill="black" fill-opacity="0.2" style="fill:black;fill-opacity:0.2;"/>
<path d="M239.827 59.1528C234.941 59.1528 231.111 55.5903 231.111 50.5764C231.111 45.5625 234.941 42 239.827 42C244.714 42 248.544 45.5625 248.544 50.5764C248.544 55.5903 244.714 59.1528 239.827 59.1528ZM232.564 136.208V68.6528H246.827V136.208H232.564Z" fill="black" fill-opacity="0.2" style="fill:black;fill-opacity:0.2;"/>
<path d="M294.354 68.6528H297.523V81.9792H291.184C278.506 81.9792 274.412 91.875 274.412 102.299V136.208H260.148V68.6528H272.827L274.412 78.8125C277.845 73.1389 283.26 68.6528 294.354 68.6528Z" fill="#262626" style="fill:#262626;fill:color(display-p3 0.1500 0.1500 0.1500);fill-opacity:1;"/>
<path d="M294.354 68.6528H297.523V81.9792H291.184C278.506 81.9792 274.412 91.875 274.412 102.299V136.208H260.148V68.6528H272.827L274.412 78.8125C277.845 73.1389 283.26 68.6528 294.354 68.6528Z" fill="black" fill-opacity="0.2" style="fill:black;fill-opacity:0.2;"/>
<path d="M294.354 68.6528H297.523V81.9792H291.184C278.506 81.9792 274.412 91.875 274.412 102.299V136.208H260.148V68.6528H272.827L274.412 78.8125C277.845 73.1389 283.26 68.6528 294.354 68.6528Z" fill="black" fill-opacity="0.2" style="fill:black;fill-opacity:0.2;"/>
<path d="M294.354 68.6528H297.523V81.9792H291.184C278.506 81.9792 274.412 91.875 274.412 102.299V136.208H260.148V68.6528H272.827L274.412 78.8125C277.845 73.1389 283.26 68.6528 294.354 68.6528Z" fill="black" fill-opacity="0.2" style="fill:black;fill-opacity:0.2;"/>
<path d="M294.354 68.6528H297.523V81.9792H291.184C278.506 81.9792 274.412 91.875 274.412 102.299V136.208H260.148V68.6528H272.827L274.412 78.8125C277.845 73.1389 283.26 68.6528 294.354 68.6528Z" fill="black" fill-opacity="0.2" style="fill:black;fill-opacity:0.2;"/>
<path d="M294.354 68.6528H297.523V81.9792H291.184C278.506 81.9792 274.412 91.875 274.412 102.299V136.208H260.148V68.6528H272.827L274.412 78.8125C277.845 73.1389 283.26 68.6528 294.354 68.6528Z" fill="black" fill-opacity="0.2" style="fill:black;fill-opacity:0.2;"/>
<path d="M334.528 137C313.265 137 299.926 123.278 299.926 102.562C299.926 81.7153 313.265 67.8611 333.207 67.8611C352.753 67.8611 365.828 80.2639 366.224 100.056C366.224 101.771 366.092 103.618 365.828 105.465H314.85V106.389C315.246 117.868 322.51 125.389 333.736 125.389C342.452 125.389 348.791 121.035 350.772 113.514H365.036C362.659 126.84 351.301 137 334.528 137ZM315.378 95.0417H351.433C350.244 85.0139 343.245 79.3403 333.34 79.3403C324.227 79.3403 316.435 85.4097 315.378 95.0417Z" fill="#262626" style="fill:#262626;fill:color(display-p3 0.1500 0.1500 0.1500);fill-opacity:1;"/>
<path d="M334.528 137C313.265 137 299.926 123.278 299.926 102.562C299.926 81.7153 313.265 67.8611 333.207 67.8611C352.753 67.8611 365.828 80.2639 366.224 100.056C366.224 101.771 366.092 103.618 365.828 105.465H314.85V106.389C315.246 117.868 322.51 125.389 333.736 125.389C342.452 125.389 348.791 121.035 350.772 113.514H365.036C362.659 126.84 351.301 137 334.528 137ZM315.378 95.0417H351.433C350.244 85.0139 343.245 79.3403 333.34 79.3403C324.227 79.3403 316.435 85.4097 315.378 95.0417Z" fill="black" fill-opacity="0.2" style="fill:black;fill-opacity:0.2;"/>
<path d="M334.528 137C313.265 137 299.926 123.278 299.926 102.562C299.926 81.7153 313.265 67.8611 333.207 67.8611C352.753 67.8611 365.828 80.2639 366.224 100.056C366.224 101.771 366.092 103.618 365.828 105.465H314.85V106.389C315.246 117.868 322.51 125.389 333.736 125.389C342.452 125.389 348.791 121.035 350.772 113.514H365.036C362.659 126.84 351.301 137 334.528 137ZM315.378 95.0417H351.433C350.244 85.0139 343.245 79.3403 333.34 79.3403C324.227 79.3403 316.435 85.4097 315.378 95.0417Z" fill="black" fill-opacity="0.2" style="fill:black;fill-opacity:0.2;"/>
<path d="M334.528 137C313.265 137 299.926 123.278 299.926 102.562C299.926 81.7153 313.265 67.8611 333.207 67.8611C352.753 67.8611 365.828 80.2639 366.224 100.056C366.224 101.771 366.092 103.618 365.828 105.465H314.85V106.389C315.246 117.868 322.51 125.389 333.736 125.389C342.452 125.389 348.791 121.035 350.772 113.514H365.036C362.659 126.84 351.301 137 334.528 137ZM315.378 95.0417H351.433C350.244 85.0139 343.245 79.3403 333.34 79.3403C324.227 79.3403 316.435 85.4097 315.378 95.0417Z" fill="black" fill-opacity="0.2" style="fill:black;fill-opacity:0.2;"/>
<path d="M334.528 137C313.265 137 299.926 123.278 299.926 102.562C299.926 81.7153 313.265 67.8611 333.207 67.8611C352.753 67.8611 365.828 80.2639 366.224 100.056C366.224 101.771 366.092 103.618 365.828 105.465H314.85V106.389C315.246 117.868 322.51 125.389 333.736 125.389C342.452 125.389 348.791 121.035 350.772 113.514H365.036C362.659 126.84 351.301 137 334.528 137ZM315.378 95.0417H351.433C350.244 85.0139 343.245 79.3403 333.34 79.3403C324.227 79.3403 316.435 85.4097 315.378 95.0417Z" fill="black" fill-opacity="0.2" style="fill:black;fill-opacity:0.2;"/>
<path d="M334.528 137C313.265 137 299.926 123.278 299.926 102.562C299.926 81.7153 313.265 67.8611 333.207 67.8611C352.753 67.8611 365.828 80.2639 366.224 100.056C366.224 101.771 366.092 103.618 365.828 105.465H314.85V106.389C315.246 117.868 322.51 125.389 333.736 125.389C342.452 125.389 348.791 121.035 350.772 113.514H365.036C362.659 126.84 351.301 137 334.528 137ZM315.378 95.0417H351.433C350.244 85.0139 343.245 79.3403 333.34 79.3403C324.227 79.3403 316.435 85.4097 315.378 95.0417Z" fill="black" fill-opacity="0.2" style="fill:black;fill-opacity:0.2;"/>
<path d="M408.131 137C387.661 137 374.586 123.674 374.586 102.562C374.586 81.7153 388.057 67.8611 408.527 67.8611C425.96 67.8611 436.79 77.4931 439.563 92.7986H424.64C422.791 84.8819 417.112 80 408.263 80C396.773 80 389.245 89.2361 389.245 102.562C389.245 115.757 396.773 124.861 408.263 124.861C416.98 124.861 422.791 119.847 424.507 112.062H439.563C436.922 127.368 425.432 137 408.131 137Z" fill="#262626" style="fill:#262626;fill:color(display-p3 0.1500 0.1500 0.1500);fill-opacity:1;"/>
<path d="M408.131 137C387.661 137 374.586 123.674 374.586 102.562C374.586 81.7153 388.057 67.8611 408.527 67.8611C425.96 67.8611 436.79 77.4931 439.563 92.7986H424.64C422.791 84.8819 417.112 80 408.263 80C396.773 80 389.245 89.2361 389.245 102.562C389.245 115.757 396.773 124.861 408.263 124.861C416.98 124.861 422.791 119.847 424.507 112.062H439.563C436.922 127.368 425.432 137 408.131 137Z" fill="black" fill-opacity="0.2" style="fill:black;fill-opacity:0.2;"/>
<path d="M408.131 137C387.661 137 374.586 123.674 374.586 102.562C374.586 81.7153 388.057 67.8611 408.527 67.8611C425.96 67.8611 436.79 77.4931 439.563 92.7986H424.64C422.791 84.8819 417.112 80 408.263 80C396.773 80 389.245 89.2361 389.245 102.562C389.245 115.757 396.773 124.861 408.263 124.861C416.98 124.861 422.791 119.847 424.507 112.062H439.563C436.922 127.368 425.432 137 408.131 137Z" fill="black" fill-opacity="0.2" style="fill:black;fill-opacity:0.2;"/>
<path d="M408.131 137C387.661 137 374.586 123.674 374.586 102.562C374.586 81.7153 388.057 67.8611 408.527 67.8611C425.96 67.8611 436.79 77.4931 439.563 92.7986H424.64C422.791 84.8819 417.112 80 408.263 80C396.773 80 389.245 89.2361 389.245 102.562C389.245 115.757 396.773 124.861 408.263 124.861C416.98 124.861 422.791 119.847 424.507 112.062H439.563C436.922 127.368 425.432 137 408.131 137Z" fill="black" fill-opacity="0.2" style="fill:black;fill-opacity:0.2;"/>
<path d="M408.131 137C387.661 137 374.586 123.674 374.586 102.562C374.586 81.7153 388.057 67.8611 408.527 67.8611C425.96 67.8611 436.79 77.4931 439.563 92.7986H424.64C422.791 84.8819 417.112 80 408.263 80C396.773 80 389.245 89.2361 389.245 102.562C389.245 115.757 396.773 124.861 408.263 124.861C416.98 124.861 422.791 119.847 424.507 112.062H439.563C436.922 127.368 425.432 137 408.131 137Z" fill="black" fill-opacity="0.2" style="fill:black;fill-opacity:0.2;"/>
<path d="M408.131 137C387.661 137 374.586 123.674 374.586 102.562C374.586 81.7153 388.057 67.8611 408.527 67.8611C425.96 67.8611 436.79 77.4931 439.563 92.7986H424.64C422.791 84.8819 417.112 80 408.263 80C396.773 80 389.245 89.2361 389.245 102.562C389.245 115.757 396.773 124.861 408.263 124.861C416.98 124.861 422.791 119.847 424.507 112.062H439.563C436.922 127.368 425.432 137 408.131 137Z" fill="black" fill-opacity="0.2" style="fill:black;fill-opacity:0.2;"/>
<path d="M484.026 68.6528H487.195V81.9792H480.856C468.177 81.9792 464.083 91.875 464.083 102.299V136.208H449.82V68.6528H462.499L464.083 78.8125C467.517 73.1389 472.932 68.6528 484.026 68.6528Z" fill="#262626" style="fill:#262626;fill:color(display-p3 0.1500 0.1500 0.1500);fill-opacity:1;"/>
<path d="M484.026 68.6528H487.195V81.9792H480.856C468.177 81.9792 464.083 91.875 464.083 102.299V136.208H449.82V68.6528H462.499L464.083 78.8125C467.517 73.1389 472.932 68.6528 484.026 68.6528Z" fill="black" fill-opacity="0.2" style="fill:black;fill-opacity:0.2;"/>
<path d="M484.026 68.6528H487.195V81.9792H480.856C468.177 81.9792 464.083 91.875 464.083 102.299V136.208H449.82V68.6528H462.499L464.083 78.8125C467.517 73.1389 472.932 68.6528 484.026 68.6528Z" fill="black" fill-opacity="0.2" style="fill:black;fill-opacity:0.2;"/>
<path d="M484.026 68.6528H487.195V81.9792H480.856C468.177 81.9792 464.083 91.875 464.083 102.299V136.208H449.82V68.6528H462.499L464.083 78.8125C467.517 73.1389 472.932 68.6528 484.026 68.6528Z" fill="black" fill-opacity="0.2" style="fill:black;fill-opacity:0.2;"/>
<path d="M484.026 68.6528H487.195V81.9792H480.856C468.177 81.9792 464.083 91.875 464.083 102.299V136.208H449.82V68.6528H462.499L464.083 78.8125C467.517 73.1389 472.932 68.6528 484.026 68.6528Z" fill="black" fill-opacity="0.2" style="fill:black;fill-opacity:0.2;"/>
<path d="M484.026 68.6528H487.195V81.9792H480.856C468.177 81.9792 464.083 91.875 464.083 102.299V136.208H449.82V68.6528H462.499L464.083 78.8125C467.517 73.1389 472.932 68.6528 484.026 68.6528Z" fill="black" fill-opacity="0.2" style="fill:black;fill-opacity:0.2;"/>
<path d="M522.455 67.8611C540.416 67.8611 550.718 76.4375 550.718 92.4028V136.208H538.303L537.115 126.576C532.492 132.646 526.021 137 515.324 137C500.532 137 490.627 129.743 490.627 117.208C490.627 103.354 500.664 95.5694 519.682 95.5694H536.586V91.4792C536.586 83.9583 531.172 79.3403 521.795 79.3403C513.342 79.3403 507.664 83.2986 506.607 89.2361H492.608C494.061 76.0417 505.418 67.8611 522.455 67.8611ZM517.701 125.917C529.587 125.917 536.454 118.924 536.586 108.5V106.125H518.889C510.041 106.125 505.154 109.424 505.154 116.285C505.154 121.958 509.909 125.917 517.701 125.917Z" fill="#262626" style="fill:#262626;fill:color(display-p3 0.1500 0.1500 0.1500);fill-opacity:1;"/>
<path d="M522.455 67.8611C540.416 67.8611 550.718 76.4375 550.718 92.4028V136.208H538.303L537.115 126.576C532.492 132.646 526.021 137 515.324 137C500.532 137 490.627 129.743 490.627 117.208C490.627 103.354 500.664 95.5694 519.682 95.5694H536.586V91.4792C536.586 83.9583 531.172 79.3403 521.795 79.3403C513.342 79.3403 507.664 83.2986 506.607 89.2361H492.608C494.061 76.0417 505.418 67.8611 522.455 67.8611ZM517.701 125.917C529.587 125.917 536.454 118.924 536.586 108.5V106.125H518.889C510.041 106.125 505.154 109.424 505.154 116.285C505.154 121.958 509.909 125.917 517.701 125.917Z" fill="black" fill-opacity="0.2" style="fill:black;fill-opacity:0.2;"/>
<path d="M522.455 67.8611C540.416 67.8611 550.718 76.4375 550.718 92.4028V136.208H538.303L537.115 126.576C532.492 132.646 526.021 137 515.324 137C500.532 137 490.627 129.743 490.627 117.208C490.627 103.354 500.664 95.5694 519.682 95.5694H536.586V91.4792C536.586 83.9583 531.172 79.3403 521.795 79.3403C513.342 79.3403 507.664 83.2986 506.607 89.2361H492.608C494.061 76.0417 505.418 67.8611 522.455 67.8611ZM517.701 125.917C529.587 125.917 536.454 118.924 536.586 108.5V106.125H518.889C510.041 106.125 505.154 109.424 505.154 116.285C505.154 121.958 509.909 125.917 517.701 125.917Z" fill="black" fill-opacity="0.2" style="fill:black;fill-opacity:0.2;"/>
<path d="M522.455 67.8611C540.416 67.8611 550.718 76.4375 550.718 92.4028V136.208H538.303L537.115 126.576C532.492 132.646 526.021 137 515.324 137C500.532 137 490.627 129.743 490.627 117.208C490.627 103.354 500.664 95.5694 519.682 95.5694H536.586V91.4792C536.586 83.9583 531.172 79.3403 521.795 79.3403C513.342 79.3403 507.664 83.2986 506.607 89.2361H492.608C494.061 76.0417 505.418 67.8611 522.455 67.8611ZM517.701 125.917C529.587 125.917 536.454 118.924 536.586 108.5V106.125H518.889C510.041 106.125 505.154 109.424 505.154 116.285C505.154 121.958 509.909 125.917 517.701 125.917Z" fill="black" fill-opacity="0.2" style="fill:black;fill-opacity:0.2;"/>
<path d="M522.455 67.8611C540.416 67.8611 550.718 76.4375 550.718 92.4028V136.208H538.303L537.115 126.576C532.492 132.646 526.021 137 515.324 137C500.532 137 490.627 129.743 490.627 117.208C490.627 103.354 500.664 95.5694 519.682 95.5694H536.586V91.4792C536.586 83.9583 531.172 79.3403 521.795 79.3403C513.342 79.3403 507.664 83.2986 506.607 89.2361H492.608C494.061 76.0417 505.418 67.8611 522.455 67.8611ZM517.701 125.917C529.587 125.917 536.454 118.924 536.586 108.5V106.125H518.889C510.041 106.125 505.154 109.424 505.154 116.285C505.154 121.958 509.909 125.917 517.701 125.917Z" fill="black" fill-opacity="0.2" style="fill:black;fill-opacity:0.2;"/>
<path d="M522.455 67.8611C540.416 67.8611 550.718 76.4375 550.718 92.4028V136.208H538.303L537.115 126.576C532.492 132.646 526.021 137 515.324 137C500.532 137 490.627 129.743 490.627 117.208C490.627 103.354 500.664 95.5694 519.682 95.5694H536.586V91.4792C536.586 83.9583 531.172 79.3403 521.795 79.3403C513.342 79.3403 507.664 83.2986 506.607 89.2361H492.608C494.061 76.0417 505.418 67.8611 522.455 67.8611ZM517.701 125.917C529.587 125.917 536.454 118.924 536.586 108.5V106.125H518.889C510.041 106.125 505.154 109.424 505.154 116.285C505.154 121.958 509.909 125.917 517.701 125.917Z" fill="black" fill-opacity="0.2" style="fill:black;fill-opacity:0.2;"/>
<path d="M578.611 136.208L556.555 68.6528H571.611L587.063 120.375L602.515 68.6528H615.59L630.381 120.375L646.361 68.6528H660.889L638.437 136.208H623.117L608.854 90.2917L594.063 136.208H578.611Z" fill="#262626" style="fill:#262626;fill:color(display-p3 0.1500 0.1500 0.1500);fill-opacity:1;"/>
<path d="M578.611 136.208L556.555 68.6528H571.611L587.063 120.375L602.515 68.6528H615.59L630.381 120.375L646.361 68.6528H660.889L638.437 136.208H623.117L608.854 90.2917L594.063 136.208H578.611Z" fill="black" fill-opacity="0.2" style="fill:black;fill-opacity:0.2;"/>
<path d="M578.611 136.208L556.555 68.6528H571.611L587.063 120.375L602.515 68.6528H615.59L630.381 120.375L646.361 68.6528H660.889L638.437 136.208H623.117L608.854 90.2917L594.063 136.208H578.611Z" fill="black" fill-opacity="0.2" style="fill:black;fill-opacity:0.2;"/>
<path d="M578.611 136.208L556.555 68.6528H571.611L587.063 120.375L602.515 68.6528H615.59L630.381 120.375L646.361 68.6528H660.889L638.437 136.208H623.117L608.854 90.2917L594.063 136.208H578.611Z" fill="black" fill-opacity="0.2" style="fill:black;fill-opacity:0.2;"/>
<path d="M578.611 136.208L556.555 68.6528H571.611L587.063 120.375L602.515 68.6528H615.59L630.381 120.375L646.361 68.6528H660.889L638.437 136.208H623.117L608.854 90.2917L594.063 136.208H578.611Z" fill="black" fill-opacity="0.2" style="fill:black;fill-opacity:0.2;"/>
<path d="M578.611 136.208L556.555 68.6528H571.611L587.063 120.375L602.515 68.6528H615.59L630.381 120.375L646.361 68.6528H660.889L638.437 136.208H623.117L608.854 90.2917L594.063 136.208H578.611Z" fill="black" fill-opacity="0.2" style="fill:black;fill-opacity:0.2;"/>
<path d="M667.737 136.208V43.8472H682V136.208H667.737Z" fill="#262626" style="fill:#262626;fill:color(display-p3 0.1500 0.1500 0.1500);fill-opacity:1;"/>
<path d="M667.737 136.208V43.8472H682V136.208H667.737Z" fill="black" fill-opacity="0.2" style="fill:black;fill-opacity:0.2;"/>
<path d="M667.737 136.208V43.8472H682V136.208H667.737Z" fill="black" fill-opacity="0.2" style="fill:black;fill-opacity:0.2;"/>
<path d="M667.737 136.208V43.8472H682V136.208H667.737Z" fill="black" fill-opacity="0.2" style="fill:black;fill-opacity:0.2;"/>
<path d="M667.737 136.208V43.8472H682V136.208H667.737Z" fill="black" fill-opacity="0.2" style="fill:black;fill-opacity:0.2;"/>
<path d="M667.737 136.208V43.8472H682V136.208H667.737Z" fill="black" fill-opacity="0.2" style="fill:black;fill-opacity:0.2;"/>
</svg>
